<?xml version="1.0" encoding="utf-8"?>
<!-- Generator: Adobe Illustrator 16.0.0, SVG Export Plug-In . SVG Version: 6.00 Build 0)  -->
<!DOCTYPE svg PUBLIC "-//W3C//DTD SVG 1.1//EN" "http://www.w3.org/Graphics/SVG/1.1/DTD/svg11.dtd">
<svg version="1.1" id="Layer_1" xmlns="http://www.w3.org/2000/svg" xmlns:xlink="http://www.w3.org/1999/xlink" x="0px" y="0px"
	 width="600px" height="600px" viewBox="0 0 600 600" enable-background="new 0 0 600 600" xml:space="preserve">
<g>
	<path fill="#4C97D2" d="M542.898,297.65c-17.654,0-33.004,9.344-41.715,23.327L374.17,288.641c0.234-2.603,0.4-5.206,0.4-7.842
		c0-22.56-9.145-42.95-23.926-57.768l20.088-34.656l54.463,17.437c2.336,9.744,10.379,17.553,20.926,19.089
		c13.816,1.968,26.631-7.609,28.633-21.425c1.969-13.816-7.576-26.631-21.393-28.634c-7.676-1.101-14.984,1.436-20.357,6.224
		l-48.99-15.667l27.5-47.49c1.533,0.367,2.969,0.902,4.537,1.136c26.934,3.888,51.928-14.783,55.799-41.716
		c3.904-26.915-14.783-51.895-41.715-55.781c-26.898-3.889-51.893,14.783-55.797,41.698c-2.336,16.186,3.604,31.57,14.449,42.199
		l-59.303,102.403c-11.012-5.541-23.428-8.711-36.576-8.711c-18.822,0-36.092,6.407-49.909,17.12l-15.417-17.653l22.242-60.104
		c9.846-1.918,18.021-9.594,20.007-20.039c2.62-13.716-6.374-26.965-20.09-29.568c-13.715-2.619-26.947,6.374-29.566,20.09
		c-1.453,7.626,0.767,15.018,5.305,20.608l-17.32,46.787l-47.973-54.881c4.005-6.406,6.758-13.716,7.442-21.758
		c2.302-27.099-17.821-50.943-44.936-53.246C95.595,44.207,71.75,64.313,69.465,91.428c-2.303,27.099,17.804,50.943,44.918,53.246
		c9.661,0.8,18.839-1.319,26.831-5.49l24.346,27.85l-79.542,16.502c-2.586-2.719-5.74-4.99-9.511-6.374
		c-13.099-4.838-27.633,1.853-32.472,14.951c-4.838,13.099,1.852,27.648,14.95,32.454c13.1,4.872,27.632-1.836,32.472-14.951
		c0.083-0.267,0.116-0.5,0.199-0.768l93.492-19.422l39.997,45.785c-8.778,13.016-13.899,28.701-13.899,45.588
		c0,7.576,1.118,14.918,3.07,21.925L98.883,357.786c-7.259-11.88-19.29-20.69-34.074-23.026
		c-26.863-4.272-52.11,14.049-56.382,40.914c-4.272,26.865,14.05,52.127,40.914,56.399c26.865,4.272,52.111-14.083,56.383-40.914
		c0.434-2.737,0.5-5.474,0.468-8.144l118.904-56.732c12.314,18.321,31.854,31.304,54.514,35.008l1.818,27.199l-59.452,24.227
		c-2.77-2.068-5.958-3.669-9.561-4.505c-13.599-3.103-27.166,5.373-30.286,18.989c-3.137,13.582,5.356,27.165,18.973,30.302
		c13.599,3.104,27.165-5.407,30.285-18.988c0.134-0.567,0.134-1.169,0.234-1.735l51.609-21.025l4.572,68.647
		c-14.083,5.94-25.262,18.221-28.95,34.238c-6.09,26.498,10.462,52.963,36.976,59.07c26.516,6.074,52.945-10.48,59.051-36.978
		c6.109-26.497-10.443-52.961-36.975-59.067c-1.434-0.334-2.904-0.334-4.34-0.534l-7.975-119.74
		c27.865-4.337,51.025-22.691,62.072-47.655l25.295,6.408l4.34,58.3c-6.607,4.572-10.945,12.182-10.945,20.792
		c0,13.95,11.312,25.296,25.295,25.296c13.949,0,25.264-11.346,25.264-25.296c0-9.777-5.641-18.154-13.75-22.359l-3.705-49.958
		l74.287,18.922c0,0.367-0.066,0.701-0.066,1.068c0,27.23,22.025,49.257,49.258,49.257c27.197,0,49.258-22.026,49.258-49.257
		C592.156,319.676,570.098,297.65,542.898,297.65z"/>
</g>
</svg>
